<svg width="500" height="235" viewBox="0 0 500 235" fill="none" xmlns="http://www.w3.org/2000/svg">
<path d="M500 3.89062L447.658 232.738H358.478L331.982 102.795L305.486 232.738H116.265L108.392 3.89062H241.191L261.867 148.053L292.884 3.89062H371.072L402.089 148.053L422.765 3.89062H500Z" fill="#9D78D8"/>
<path d="M58.6478 219.81C40.6576 209.689 26.3919 195.677 15.8334 177.792C5.27492 159.907 0 139.761 0 117.344C0 94.9358 5.27492 74.7893 15.8334 56.8956C26.3833 39.0107 40.6576 25.0597 58.6478 15.0341C76.6292 5.00849 96.395 0 117.936 0C139.478 0 159.183 5.00849 177.061 15.0341C194.938 25.0511 209.1 39.0107 219.546 56.8956C229.992 74.7893 235.215 94.9358 235.215 117.344C235.215 139.761 229.992 159.907 219.546 177.792C209.091 195.686 194.878 209.689 176.896 219.81C158.906 229.94 139.253 235 117.928 235C96.395 235 76.6292 229.94 58.6478 219.81ZM150.894 154.353C158.646 145.194 162.526 132.855 162.526 117.344C162.526 101.617 158.646 89.1735 150.894 80.0144C143.142 70.8553 132.15 66.28 117.936 66.28C103.506 66.28 92.4107 70.8639 84.6586 80.0144C76.9064 89.1735 73.026 101.625 73.026 117.344C73.026 132.855 76.9064 145.203 84.6586 154.353C92.4107 163.512 103.506 168.096 117.936 168.096C132.15 168.087 143.133 163.512 150.894 154.353Z" fill="white"/>
<path d="M163.678 90.17C158.698 81.6435 151.942 74.9886 143.419 70.2054C134.887 65.4222 125.489 63.0393 115.216 63.0393C104.944 63.0393 95.5199 65.4309 86.9449 70.2054C78.3699 74.9799 71.5619 81.6435 66.5295 90.17C61.4971 98.7052 58.9766 108.306 58.9766 118.999C58.9766 129.692 61.4884 139.293 66.5295 147.828C71.5619 156.363 78.3699 163.036 86.9449 167.871C95.5199 172.706 104.944 175.115 115.216 175.115C125.385 175.115 134.757 172.697 143.341 167.871C151.916 163.044 158.698 156.363 163.678 147.828C168.659 139.302 171.153 129.692 171.153 118.999C171.153 108.306 168.659 98.7052 163.678 90.17Z" fill="#9D78D8"/>
</svg>
